<svg width="334" height="50" viewBox="0 0 334 50" fill="none" xmlns="http://www.w3.org/2000/svg">
<g clip-path="url(#clip0_61_1326)">
<path d="M21.7955 0.0871325C21.9151 0.154666 22.0321 0.225414 22.1491 0.297453C22.2388 0.351524 22.3284 0.405584 22.4181 0.459634C22.4637 0.487321 22.5093 0.515007 22.5562 0.543533C22.7629 0.668733 22.9711 0.791427 23.1793 0.914036C23.2397 0.949736 23.2397 0.949736 23.3014 0.986158C23.5303 1.12117 23.7598 1.25499 23.99 1.38762C24.0157 1.40239 24.0413 1.41716 24.0677 1.43238C24.1918 1.50386 24.316 1.57521 24.4403 1.64637C24.6707 1.77879 24.8987 1.91387 25.1239 2.05521C25.3738 2.21188 25.6284 2.35788 25.8858 2.50141C26.3367 2.75477 26.7815 3.01739 27.2248 3.28404C27.4328 3.40881 27.6414 3.53247 27.8502 3.65586C27.8918 3.68046 27.9334 3.70505 27.9763 3.73039C28.2611 3.89802 28.5476 4.06192 28.8375 4.22016C28.9824 4.30004 29.1205 4.38441 29.2565 4.4789C29.4842 4.63474 29.7249 4.7656 29.9663 4.89799C30.1009 4.9719 30.2353 5.04645 30.3696 5.12106C30.3956 5.13553 30.4217 5.15 30.4485 5.1649C30.7326 5.32319 31.0093 5.49188 31.2859 5.66303C31.7373 5.93754 32.1951 6.19989 32.6564 6.45708C32.9013 6.59445 33.1388 6.73922 33.3741 6.89272C33.5598 7.01121 33.7514 7.11875 33.9432 7.22679C34.0271 7.27442 34.111 7.32209 34.1949 7.36979C34.2363 7.39333 34.2777 7.41687 34.3204 7.44112C34.7258 7.67242 35.1283 7.90862 35.5261 8.15298C35.8058 8.32471 36.0913 8.48541 36.3772 8.64624C36.6872 8.82059 36.9931 8.99748 37.2934 9.18821C37.5452 9.3442 37.8031 9.48963 38.0598 9.6372C38.3186 9.78604 38.5767 9.93621 38.8347 10.0867C38.8802 10.1133 38.9258 10.1398 38.9727 10.1672C39.3146 10.3668 39.6555 10.5679 39.9961 10.7696C40.2254 10.905 40.4555 11.0391 40.6863 11.1718C40.7124 11.1868 40.7384 11.2017 40.7653 11.2172C40.892 11.29 41.0188 11.3627 41.1457 11.4351C41.3455 11.5498 41.5428 11.6645 41.7324 11.7956C41.98 11.9664 42.2463 12.1025 42.5109 12.244C42.5501 12.2652 42.5892 12.2864 42.6295 12.3082C42.6647 12.327 42.7 12.3459 42.7363 12.3653C42.8264 12.4206 42.886 12.4659 42.9529 12.5478C42.9685 12.6289 42.9685 12.6289 42.9684 12.7228C42.9689 12.7588 42.969 12.7947 42.9694 12.8317C42.9689 12.8713 42.9687 12.9108 42.9684 12.9516C42.9689 13.0148 42.9689 13.0148 42.9689 13.0792C42.9694 13.2218 42.9689 13.3643 42.9684 13.5069C42.9684 13.6095 42.9688 13.7122 42.9689 13.8149C42.9693 14.0388 42.9693 14.2628 42.9689 14.4867C42.9684 14.8197 42.9685 15.1527 42.9689 15.4858C42.9694 16.0804 42.9693 16.6751 42.9685 17.2698C42.9681 17.7902 42.9679 18.3106 42.9679 18.831C42.9679 18.8828 42.9679 18.8828 42.9679 18.9355C42.9679 19.0755 42.968 19.2154 42.9679 19.3554C42.9679 20.6691 42.9675 21.9828 42.9667 23.2966C42.9659 24.4645 42.9657 25.6324 42.9659 26.8003C42.9659 26.8752 42.9659 26.9502 42.9659 27.0252C42.9659 27.0808 42.9659 27.0808 42.9659 27.1375C42.966 27.3241 42.9659 27.5107 42.9659 27.6973C42.966 27.7525 42.966 27.7525 42.966 27.8088C42.966 28.7839 42.966 29.7589 42.9656 30.7339C42.9655 30.8388 42.9656 30.9437 42.9656 31.0486C42.9655 31.1182 42.9656 31.1877 42.9656 31.2573C42.9656 31.743 42.9656 32.2286 42.9656 32.7143C42.9656 33.34 42.9656 33.9658 42.9648 34.5916C42.9644 34.9228 42.9644 35.254 42.9644 35.5852C42.9644 35.832 42.9644 36.0788 42.9638 36.3256C42.9638 36.4258 42.9638 36.526 42.9638 36.6262C42.9642 36.7618 42.9638 36.8973 42.9633 37.0329C42.9633 37.0723 42.9637 37.1118 42.9639 37.1524C42.9634 37.1885 42.9634 37.2245 42.9632 37.2616C42.9632 37.2926 42.9632 37.3236 42.9631 37.3556C42.9509 37.4569 42.9225 37.5232 42.8697 37.6099C42.7738 37.6774 42.7738 37.6774 42.6529 37.7434C42.6078 37.7682 42.5628 37.7931 42.5165 37.8187C42.4673 37.8453 42.4181 37.8719 42.3689 37.8985C42.3184 37.9262 42.268 37.954 42.2175 37.9819C42.1133 38.0394 42.0089 38.0968 41.9045 38.1539C41.6647 38.2855 41.4264 38.4199 41.1882 38.5544C41.1263 38.5891 41.1263 38.5891 41.0631 38.6244C40.7867 38.7802 40.5198 38.9478 40.254 39.1212C39.7562 39.4379 39.239 39.7209 38.7245 40.0086C37.9987 40.4147 37.2815 40.8332 36.5742 41.2715C36.1224 41.5502 35.6584 41.8067 35.1954 42.0656C34.4696 42.4718 33.7523 42.8902 33.045 43.3285C32.5936 43.6071 32.1299 43.8633 31.6672 44.1221C31.0219 44.4831 30.3775 44.8465 29.7528 45.2434C29.278 45.5443 28.7861 45.8148 28.2964 46.0899C27.5505 46.5089 26.806 46.9301 26.0829 47.3886C25.6991 47.6293 25.3016 47.8464 24.907 48.0682C24.6777 48.1972 24.4487 48.3269 24.2197 48.4565C24.1548 48.4932 24.1548 48.4931 24.0886 48.5306C23.9045 48.6347 23.7205 48.7392 23.5379 48.8461C23.5104 48.8622 23.483 48.8782 23.4547 48.8948C23.3853 48.9355 23.316 48.9766 23.2468 49.0176C23.1481 49.0704 23.1481 49.0704 23.0651 49.0704C23.0651 49.0981 23.0651 49.1259 23.0651 49.1544C23.0055 49.188 23.0055 49.188 22.9446 49.2223C22.6005 49.4168 22.2588 49.615 21.9196 49.8182C21.6972 49.9513 21.5842 50.0171 21.3213 49.994C21.2043 49.9452 21.1008 49.8791 20.9943 49.8103C20.9315 49.7714 20.8687 49.7325 20.8059 49.6936C20.7741 49.6736 20.7424 49.6536 20.7096 49.6331C20.5654 49.5429 20.4192 49.4562 20.2729 49.3695C20.2441 49.3524 20.2152 49.3352 20.1855 49.3175C19.9554 49.1807 19.7238 49.0466 19.4918 48.913C19.176 48.7311 18.8612 48.5474 18.5473 48.362C18.5056 48.3374 18.464 48.3129 18.421 48.2875C18.2125 48.1644 18.0042 48.0409 17.796 47.9171C17.3076 47.6272 16.816 47.3439 16.3191 47.069C16.0459 46.9171 15.7794 46.7571 15.5146 46.5906C15.3184 46.469 15.1179 46.3554 14.9169 46.242C14.6361 46.0826 14.356 45.9224 14.0787 45.7566C14.0511 45.7401 14.0234 45.7236 13.9948 45.7065C13.9363 45.6715 13.8779 45.6366 13.8194 45.6016C13.2158 45.2408 12.6092 44.8866 11.9939 44.5466C11.7442 44.4078 11.5024 44.2618 11.2632 44.1055C11.0637 43.9785 10.8571 43.8646 10.6508 43.7495C10.1043 43.4422 9.56086 43.1305 9.02636 42.8023C8.74829 42.6316 8.46459 42.4716 8.1804 42.3116C7.61787 41.9949 7.61787 41.9949 7.34742 41.8289C6.67938 41.4188 6.00212 41.0254 5.31658 40.6461C5.04331 40.4942 4.7768 40.3341 4.51197 40.1676C4.31572 40.046 4.1153 39.9324 3.91429 39.8191C3.63348 39.6596 3.35333 39.4994 3.07611 39.3337C3.04842 39.3171 3.02073 39.3006 2.9922 39.2836C2.93371 39.2486 2.87523 39.2136 2.81676 39.1786C2.21406 38.8184 1.60817 38.4651 0.994893 38.1236C0.864084 38.0507 0.733518 37.9774 0.603115 37.9037C0.556632 37.8775 0.510149 37.8513 0.462257 37.8243C0.417326 37.7985 0.372395 37.7727 0.326103 37.7461C0.285601 37.723 0.245098 37.6999 0.203369 37.676C0.0895154 37.5996 0.0352881 37.5298 -0.00377246 37.3965C-0.0266712 37.2202 -0.0254107 37.0459 -0.0250167 36.8682C-0.0250997 36.8269 -0.0251828 36.7856 -0.0252243 36.743C-0.0254319 36.6037 -0.0253073 36.4644 -0.0252147 36.3251C-0.0252978 36.2246 -0.0253808 36.124 -0.0255054 36.0235C-0.025713 35.8044 -0.025796 35.5854 -0.025713 35.3663C-0.0256299 35.0406 -0.0258375 34.7148 -0.0260451 34.3891C-0.0264603 33.7735 -0.0265641 33.1579 -0.026589 32.5424C-0.0266081 32.067 -0.0266721 31.5917 -0.0268381 31.1164C-0.0268755 30.9796 -0.0269212 30.8429 -0.0269627 30.7061C-0.0269718 30.6721 -0.026981 30.6381 -0.0269905 30.6031C-0.0272396 29.6467 -0.0274099 28.6903 -0.0274057 27.7338C-0.0274049 27.6978 -0.0274045 27.6617 -0.0274036 27.6245C-0.0274003 27.4417 -0.0273962 27.2589 -0.027392 27.0761C-0.0273912 27.0398 -0.0273903 27.0035 -0.0273895 26.966C-0.0273878 26.8926 -0.0273862 26.8192 -0.0273841 26.7458C-0.0273588 25.6032 -0.0276747 24.4607 -0.0282394 23.3181C-0.0288788 22.0349 -0.0292359 20.7517 -0.0291944 19.4685C-0.0291915 19.3317 -0.0291894 19.1949 -0.0291881 19.0581C-0.0291877 19.0244 -0.0291873 18.9908 -0.0291865 18.9561C-0.0291852 18.4137 -0.0294356 17.8713 -0.0298093 17.3289C-0.0301414 16.7839 -0.0302245 16.239 -0.0299338 15.694C-0.0297677 15.3701 -0.0298508 15.0463 -0.030266 14.7224C-0.0305566 14.4807 -0.0303905 14.2391 -0.0300584 13.9974C-0.0299753 13.8995 -0.0300717 13.8016 -0.0303075 13.7037C-0.0305981 13.5709 -0.0303905 13.4381 -0.0300169 13.3053C-0.0302245 13.2671 -0.0304321 13.2289 -0.0306396 13.1895C-0.0286758 12.8345 0.0103491 12.5571 0.270955 12.2959C0.387728 12.2155 0.387728 12.2155 0.520071 12.1437C0.571449 12.1153 0.622806 12.0868 0.674147 12.0583C0.702286 12.0428 0.730425 12.0274 0.759416 12.0115C0.9388 11.912 1.11588 11.8084 1.29337 11.7055C1.33107 11.6838 1.36877 11.662 1.40761 11.6396C1.60544 11.5253 1.80274 11.4103 1.9992 11.2936C2.14374 11.2079 2.28935 11.1251 2.43694 11.0448C2.66897 10.9173 2.89612 10.7825 3.12282 10.6455C3.44162 10.454 3.76209 10.2665 4.08587 10.0837C4.7421 9.71323 5.3934 9.33324 6.03663 8.9401C6.39874 8.71886 6.76215 8.50219 7.13295 8.29616C7.42935 8.13128 7.72178 7.95981 8.01416 7.78778C8.13286 7.71797 8.25184 7.64869 8.37129 7.58018C8.3975 7.56514 8.42371 7.5501 8.45072 7.53461C8.52 7.49495 8.58934 7.4554 8.65868 7.41586C8.78635 7.3399 8.90834 7.25742 9.03154 7.17432C9.09414 7.13834 9.1573 7.10335 9.22098 7.06937C9.56968 6.87959 9.91202 6.67843 10.2555 6.47923C10.3492 6.42502 10.443 6.37109 10.5369 6.31733C10.5762 6.29484 10.5762 6.29484 10.6162 6.27189C10.6843 6.23287 10.7525 6.19392 10.8206 6.15499C10.905 6.10462 10.9878 6.05157 11.0692 5.99658C11.1744 5.92578 11.2787 5.86416 11.3904 5.80472C11.5889 5.69675 11.7831 5.58274 11.9768 5.46625C12.2336 5.31216 12.493 5.16442 12.7553 5.02021C13.165 4.7944 13.566 4.55507 13.9669 4.31379C14.2139 4.16543 14.4615 4.01809 14.7093 3.87101C14.7352 3.85562 14.7611 3.84024 14.7878 3.82439C15.119 3.62795 15.4516 3.43465 15.7882 3.24776C16.0436 3.1058 16.2957 2.95837 16.5476 2.81008C16.7589 2.68581 16.9714 2.56399 17.1849 2.44368C17.3789 2.3342 17.5698 2.22154 17.7584 2.1026C17.9854 1.95961 18.2161 1.8243 18.4487 1.69067C19.0546 1.34242 19.6583 0.990047 20.2548 0.625423C20.4959 0.478176 20.7402 0.338955 20.9891 0.205622C21.0255 0.184679 21.0618 0.163737 21.0992 0.14216C21.1348 0.122408 21.1704 0.102656 21.2071 0.0823053C21.2381 0.0646097 21.2692 0.0469141 21.3012 0.0286822C21.4881 -0.0310631 21.6243 0.00295441 21.7955 0.0871325ZM21.1267 4.65026C21.0993 4.66481 21.072 4.67936 21.0438 4.69435C20.6912 4.88563 20.3479 5.09477 20.0036 5.30084C19.6755 5.49718 19.3453 5.68873 19.0118 5.87556C18.6018 6.1055 18.1983 6.34508 17.7959 6.58815C17.4843 6.77576 17.17 6.95727 16.8528 7.13496C16.5042 7.33024 16.1607 7.53222 15.82 7.74105C15.4371 7.9757 15.0497 8.20007 14.6581 8.41945C14.3361 8.60049 14.0187 8.78844 13.7025 8.97946C13.3456 9.19499 12.9866 9.40534 12.623 9.60916C12.2577 9.81393 11.8969 10.0251 11.5383 10.2415C11.16 10.4697 10.7794 10.6927 10.3952 10.9104C10.0697 11.0953 9.74764 11.2857 9.42598 11.4773C9.06794 11.6905 8.70889 11.9014 8.34648 12.107C7.96274 12.3247 7.58281 12.5485 7.20366 12.7742C6.82155 13.0016 6.43781 13.2259 6.05253 13.4477C5.48414 13.7753 4.9185 14.1053 4.36321 14.4552C4.32898 14.4766 4.29475 14.498 4.25949 14.52C4.212 14.5502 4.212 14.5502 4.16356 14.581C4.12138 14.6077 4.12138 14.6077 4.07835 14.6349C3.99597 14.6915 3.99597 14.6915 3.92466 14.8147C3.91654 14.9273 3.91331 15.0355 3.91387 15.1481C3.9137 15.1826 3.91354 15.2171 3.91339 15.2527C3.91296 15.3694 3.91314 15.486 3.91327 15.6027C3.9131 15.6868 3.91285 15.7709 3.91261 15.8549C3.91202 16.0868 3.91194 16.3186 3.91197 16.5505C3.91188 16.8002 3.91136 17.05 3.91088 17.2997C3.90998 17.8177 3.90962 18.3357 3.90942 18.8536C3.90941 18.8818 3.9094 18.91 3.90939 18.939C3.90938 18.9672 3.90937 18.9954 3.90936 19.0245C3.90923 19.337 3.90894 19.6495 3.90869 19.9619C3.90787 20.9054 3.90719 21.8489 3.90707 22.7924C3.90707 22.8226 3.90706 22.8528 3.90706 22.8839C3.90704 23.0062 3.90703 23.1286 3.90702 23.2509C3.90701 23.343 3.907 23.4351 3.90698 23.5272C3.90698 23.5576 3.90698 23.588 3.90697 23.6194C3.90685 24.5756 3.90593 25.5319 3.90443 26.4881C3.90274 27.5619 3.90175 28.6357 3.90174 29.7095C3.90174 29.824 3.90173 29.9385 3.90172 30.0529C3.90172 30.0811 3.90172 30.1093 3.90172 30.1383C3.90167 30.5923 3.90095 31.0462 3.89998 31.5002C3.89904 31.9563 3.89888 32.4124 3.89947 32.8685C3.89976 33.1157 3.89971 33.3629 3.89878 33.61C3.89793 33.8362 3.89803 34.0623 3.89891 34.2885C3.89907 34.3704 3.89887 34.4524 3.89826 34.5343C3.89751 34.6455 3.89805 34.7566 3.89888 34.8677C3.89835 34.8998 3.89783 34.9318 3.89729 34.9648C3.90128 35.2079 3.96749 35.3046 4.13225 35.4689C4.25065 35.555 4.25065 35.555 4.38201 35.6257C4.4056 35.6391 4.42919 35.6525 4.45349 35.6663C4.52954 35.7094 4.60595 35.7518 4.68238 35.7942C4.73551 35.8242 4.78862 35.8543 4.84169 35.8844C4.94602 35.9436 5.05046 36.0026 5.15499 36.0614C5.32411 36.1572 5.49146 36.2556 5.65808 36.3557C5.7123 36.3881 5.76653 36.4206 5.82076 36.453C5.84882 36.4697 5.87689 36.4865 5.9058 36.5038C6.41221 36.8059 6.91963 37.106 7.43317 37.3955C7.60467 37.4926 7.77368 37.5933 7.94165 37.6965C8.23435 37.8761 8.53155 38.0474 8.82913 38.2186C9.23744 38.4535 9.64391 38.6913 10.0488 38.9322C10.4765 39.1868 10.9062 39.4378 11.3376 39.6861C11.6489 39.8653 11.959 40.0462 12.2672 40.2307C12.4848 40.3608 12.7042 40.4877 12.924 40.6141C13.2777 40.8176 13.6293 41.0248 13.9801 41.2333C14.4079 41.4875 14.8369 41.7396 15.2671 41.9897C15.6073 42.1878 15.946 42.3885 16.2844 42.5898C16.6846 42.8277 17.0868 43.0615 17.4916 43.2913C17.7932 43.4628 18.0912 43.64 18.3886 43.819C18.7309 44.0245 19.0766 44.2239 19.4227 44.423C19.6992 44.5821 19.9751 44.742 20.247 44.9092C20.4721 45.0466 20.6984 45.1815 20.9268 45.3132C20.9577 45.3315 20.9885 45.3497 21.0203 45.3685C21.2031 45.4727 21.3557 45.5413 21.5704 45.5441C21.7062 45.5014 21.7062 45.5014 21.8377 45.426C21.8627 45.4127 21.8878 45.3993 21.9136 45.3855C22.1263 45.2698 22.3303 45.1403 22.5338 45.009C23.0494 44.6776 23.5856 44.3791 24.1164 44.0735C24.1855 44.0337 24.2546 43.9939 24.3236 43.9541C24.3578 43.9344 24.392 43.9147 24.4273 43.8945C24.772 43.6955 25.1138 43.4916 25.4559 43.2881C25.79 43.0894 26.1257 42.8942 26.4654 42.7055C26.6917 42.5796 26.9145 42.4485 27.1367 42.3154C27.4037 42.1556 27.6722 41.9986 27.941 41.842C27.9868 41.8153 28.0325 41.7887 28.0796 41.7612C28.1737 41.7064 28.2678 41.6516 28.3619 41.5969C28.5953 41.4609 28.8287 41.3248 29.062 41.1887C29.1073 41.1623 29.1525 41.1359 29.1992 41.1087C29.4899 40.9391 29.7805 40.7692 30.0709 40.599C30.2592 40.4887 30.4476 40.3787 30.6362 40.2689C31.1726 39.9565 31.708 39.6428 32.2404 39.3235C32.6459 39.0803 33.0545 38.8435 33.4653 38.6097C33.7022 38.4747 33.9377 38.3379 34.1715 38.1976C34.4446 38.0338 34.7201 37.875 34.9967 37.7175C35.673 37.3322 36.343 36.9364 37.0125 36.5391C37.3876 36.3165 37.7632 36.0947 38.1392 35.8736C38.2491 35.8089 38.359 35.7439 38.4688 35.6788C38.507 35.6564 38.5452 35.6339 38.5845 35.6108C38.6215 35.5888 38.6585 35.5668 38.6966 35.5442C38.7297 35.5246 38.7627 35.5051 38.7968 35.485C38.934 35.3936 38.9975 35.3344 39.05 35.175C39.0543 35.0652 39.0561 34.9564 39.056 34.8465C39.0565 34.7956 39.0565 34.7956 39.0565 34.7436C39.0569 34.6287 39.057 34.5139 39.0572 34.399C39.0576 34.3163 39.0577 34.2335 39.0579 34.1507C39.0587 33.9224 39.0592 33.6942 39.0596 33.4659C39.0601 33.22 39.0608 32.9742 39.0615 32.7283C39.0628 32.2462 39.064 31.7642 39.065 31.2821C39.0658 30.8904 39.0667 30.4986 39.0677 30.1068C39.0681 29.9941 39.0682 29.8814 39.0685 29.7687C39.0685 29.7407 39.0685 29.7127 39.0685 29.6838C39.0704 28.8955 39.0722 28.1071 39.0738 27.3188C39.0738 27.2891 39.0738 27.2593 39.0738 27.2287C39.0742 27.078 39.0744 26.9272 39.0747 26.7765C39.0747 26.7466 39.0747 26.7166 39.0747 26.6858C39.0747 26.6253 39.0751 26.5647 39.0751 26.5042C39.077 25.5626 39.0793 24.621 39.0818 23.6794C39.0846 22.6219 39.0872 21.5644 39.0893 20.5068C39.0898 20.3941 39.0898 20.2813 39.0901 20.1685C39.0901 20.1269 39.0901 20.1269 39.0901 20.0844C39.0909 19.6651 39.092 19.2459 39.0932 18.8267C39.0946 18.3498 39.0957 17.8729 39.0964 17.3959C39.0968 17.1526 39.0972 16.9092 39.0981 16.6658C39.0989 16.443 39.0993 16.2202 39.0994 15.9974C39.0994 15.9168 39.0998 15.8362 39.1001 15.7556C39.1007 15.646 39.1007 15.5364 39.1006 15.4268C39.101 15.3955 39.1011 15.3643 39.1014 15.3321C39.1004 15.1141 39.0823 14.8949 39.0078 14.6888C38.9165 14.6034 38.8536 14.5554 38.7479 14.4977C38.7219 14.4823 38.696 14.4669 38.6694 14.451C38.6154 14.419 38.5612 14.3875 38.5067 14.3566C38.4312 14.3136 38.3569 14.2691 38.2828 14.2238C38.1403 14.137 37.9968 14.0519 37.8531 13.9672C37.8274 13.952 37.8018 13.9369 37.7753 13.9212C37.37 13.6816 36.9615 13.4483 36.551 13.2178C36.2512 13.0489 35.9565 12.873 35.6631 12.6931C35.4087 12.5375 35.1514 12.3881 34.8922 12.2408C34.5383 12.0397 34.1853 11.8369 33.8335 11.6321C33.7902 11.607 33.747 11.5819 33.7024 11.556C33.4833 11.4282 33.2664 11.2977 33.0516 11.1626C32.7851 10.9958 32.5126 10.8421 32.2376 10.6901C31.9008 10.5029 31.5668 10.3125 31.2385 10.1103C30.9343 9.92299 30.6261 9.74468 30.3147 9.5698C29.8699 9.31984 29.4313 9.06072 28.9939 8.79766C28.4706 8.48376 27.9454 8.17376 27.4121 7.8775C27.1291 7.71951 26.8516 7.55262 26.5739 7.38545C26.2971 7.21929 26.018 7.058 25.7372 6.89882C25.4401 6.73033 25.1461 6.55806 24.8549 6.37932C24.5059 6.1652 24.1511 5.96273 23.7943 5.76222C23.4857 5.58849 23.1797 5.41068 22.875 5.23011C22.8337 5.20573 22.7924 5.18135 22.7498 5.15623C22.5667 5.04815 22.3839 4.93967 22.2017 4.82999C22.1433 4.79542 22.0849 4.76087 22.0264 4.72635C22.0013 4.71094 21.9763 4.69553 21.9504 4.67965C21.6603 4.51019 21.4265 4.48878 21.126 4.65026H21.1267Z" fill="#373636"/>
<path d="M16.8372 9.73493L16.9467 9.77019C17.7546 10.0556 18.4677 10.7498 18.8717 11.4981C19.2197 12.2523 19.247 13.3104 18.9962 14.1009C18.8425 14.4968 18.6344 14.8116 18.3319 15.1084L18.2362 15.2048C17.8143 15.6104 17.3171 15.9829 16.7152 15.9926C16.3497 15.9219 15.9762 15.7085 15.7577 15.4022C15.5288 15.0081 15.3641 14.6439 15.4671 14.1848C15.5929 13.8175 15.7989 13.5813 16.138 13.4016C16.304 13.323 16.4718 13.2502 16.6414 13.1801C16.8118 13.1095 16.9199 13.0521 17.0033 12.8834C17.0346 12.5735 16.9224 12.3502 16.7645 12.0937C16.5375 11.8705 16.2647 11.7933 15.9549 11.7841C15.4693 11.7938 15.0257 11.9857 14.6652 12.3193C14.0642 12.9834 13.8092 13.9365 13.8331 14.8163C13.8555 15.2423 13.9831 15.6554 14.18 16.0319L14.2434 16.1535C14.6169 16.8343 15.1062 17.194 15.8318 17.4211L15.9653 17.4593L16.0396 17.4819C17.3905 17.7664 18.4726 17.145 19.5931 16.4808C19.7827 16.3686 19.9743 16.2601 20.1665 16.1526L20.261 16.0998C20.3778 16.0344 20.4946 15.9691 20.6115 15.9039C21.3448 15.494 22.072 15.067 22.7723 14.6016C23.0862 14.3936 23.408 14.1996 23.731 14.0065C23.8428 13.9396 23.9545 13.8724 24.0661 13.8051C26.3675 12.4195 26.3675 12.4195 27.3416 12.2537C27.4091 12.2372 27.4766 12.2205 27.544 12.2039C28.7215 11.9801 29.8491 12.5426 30.8009 13.1865C31.6494 13.8039 32.2021 14.65 32.407 15.6961C32.5757 16.8464 32.2822 18.0538 31.5973 18.9915C31.5356 19.069 31.4734 19.146 31.4105 19.2224L31.3288 19.3305C30.2253 20.6078 30.7323 20.0675 29.293 21.2795C30.9485 26.8877 31.1272 27.2436 32.9437 33.0277C31.1535 33.0081 32.4433 33.0437 30.8708 32.9919C29.2428 28.0398 29.1927 27.7986 27.0095 21.5733C25.0763 23.5859 24.9518 23.7323 23.6049 25.0577C23.4466 25.2308 23.4466 25.2308 23.3757 25.3072C23.2195 25.5265 23.2193 25.7595 23.2207 26.0184L23.2204 26.1308C23.22 26.2549 23.2203 26.379 23.2206 26.5031C23.2205 26.5922 23.2203 26.6814 23.2201 26.7705C23.192 31.6313 23.2833 35.1767 23.2642 35.7784C23.1863 36.9597 22.153 38.322 21.3213 39.1288C20.0891 40.2723 19.091 40.5313 17.5938 40.6407C16.2335 40.7146 14.7132 40.2927 13.6765 39.3611C13.1132 38.8387 12.6007 38.3036 12.187 37.6517L12.1286 37.5612C11.6773 36.8561 11.511 36.1505 11.3564 35.3305C11.2801 34.9259 11.2917 34.231 11.3566 33.8079L11.3706 33.7162C11.5597 32.4985 11.9935 31.348 12.3887 30.1865C12.5221 29.794 12.6522 29.4004 12.7813 29.0064C12.9402 28.5218 13.1021 28.0383 13.2665 27.5555C13.4351 27.0604 13.6013 26.5646 13.7648 26.0678L13.7961 25.9727C13.8788 25.7212 13.9613 25.4697 14.0438 25.2183C14.4928 23.85 14.9511 22.4851 15.4152 21.122L15.4632 20.9808C15.5472 20.7349 15.634 20.4905 15.7258 20.2474C15.775 20.0911 15.7778 19.973 15.7577 19.8102C15.6706 19.6977 15.5756 19.6513 15.4463 19.5981L15.3354 19.5516L15.2179 19.5032C14.494 19.1955 13.9191 18.8018 13.3496 18.2569L13.2541 18.1655C12.2452 17.1737 11.6905 15.9609 11.6571 14.5368C11.6381 13.135 11.967 11.7397 12.9431 10.6897L13.0174 10.6165L13.0969 10.5381C14.079 9.66446 15.5961 9.28192 16.8372 9.73493ZM25.8888 15.0317C23.9692 16.3948 25.4791 15.392 23.0135 17.1988C23.1828 21.3513 23.0715 18.0762 23.2823 22.9554C27.7199 18.6787 24.9183 21.1266 27.9715 18.1251C28.4682 18.9939 28.0111 18.1954 28.5042 19.0545C28.7062 19.092 28.8289 19.0739 29.005 18.9679C29.4221 18.6586 29.8728 18.2375 30.0819 17.7531L30.133 17.6446C30.3694 17.036 30.3423 16.2175 30.1023 15.6149C30.0098 15.4227 29.9122 15.2418 29.7913 15.0664L29.7056 14.9352C29.3447 14.5235 28.7172 14.2938 28.1868 14.2588C27.295 14.2346 26.6382 14.572 25.8888 15.0317ZM18.3734 19.6003C21.1875 22.6506 18.4929 19.7324 21.2764 22.7192C21.1635 18.3282 21.2875 22.3071 21.1552 18.1729C18.4709 19.5089 21.008 18.2314 18.3734 19.6003ZM17.431 21.2587C17.1631 21.9364 17.3533 21.4372 16.6659 23.1348C16.5719 23.4054 16.4796 23.6765 16.3878 23.9479C16.3021 24.2012 16.2158 24.4543 16.1296 24.7074L16.0768 24.8624C15.9134 25.3412 15.7466 25.8188 15.5786 26.2961C15.3778 26.8669 15.1783 27.4381 14.981 28.0102L14.9502 28.0996C14.8491 28.3925 14.7482 28.6853 14.6475 28.9783C14.601 29.1135 14.5545 29.2486 14.5079 29.3837L14.4542 29.5397C14.3533 29.8316 14.2491 30.1221 14.1415 30.4116C14.0313 30.7097 13.9407 31.0085 13.866 31.3179L13.8304 31.4605C13.7941 31.607 13.7586 31.7537 13.7233 31.9004L13.687 32.0509C13.6228 32.3179 13.5595 32.5851 13.4971 32.8525C13.4825 32.9146 13.4672 32.9765 13.4511 33.0382C12.9676 35.1239 13.2386 35.8634 14.0969 37.2739C14.5917 37.9807 15.4567 38.3488 16.2559 38.5753L16.4114 38.6195C16.586 38.663 16.7524 38.6734 16.9318 38.6748L17.0286 38.6759C17.096 38.6765 17.1633 38.6769 17.2307 38.6771C17.3313 38.6776 17.4318 38.6796 17.5324 38.6818C18.5538 38.6925 19.4896 38.2389 20.2343 37.5397C20.6978 37.0383 21.0575 36.3933 21.1967 35.7206L21.219 35.6207C21.3038 35.1876 21.2921 34.7523 21.2918 34.3128C21.2903 31.8557 21.3056 29.3985 21.3001 26.9414C21.3 26.8531 21.3002 26.7649 21.3007 26.6766C21.3055 25.7825 21.1245 25.1638 20.4909 24.5119C18.2169 22.1501 19.8091 23.7842 17.431 21.2587Z" fill="#373636"/>
</g>
<path d="M56.85 35.24C55.59 35.24 54.42 34.98 53.34 34.46C52.26 33.92 51.39 33.17 50.73 32.21L52.47 30.17C53.63 31.83 55.09 32.66 56.85 32.66C58.03 32.66 58.92 32.3 59.52 31.58C60.14 30.86 60.45 29.8 60.45 28.4V16.61H52.86V14H63.42V28.25C63.42 30.57 62.86 32.32 61.74 33.5C60.64 34.66 59.01 35.24 56.85 35.24ZM79.0109 35.24C76.8909 35.24 74.9809 34.78 73.2809 33.86C71.5809 32.92 70.2409 31.63 69.2609 29.99C68.3009 28.35 67.8209 26.52 67.8209 24.5C67.8209 22.48 68.3009 20.65 69.2609 19.01C70.2409 17.37 71.5809 16.09 73.2809 15.17C74.9809 14.23 76.8909 13.76 79.0109 13.76C81.1109 13.76 83.0109 14.23 84.7109 15.17C86.4109 16.09 87.7409 17.37 88.7009 19.01C89.6609 20.63 90.1409 22.46 90.1409 24.5C90.1409 26.54 89.6609 28.38 88.7009 30.02C87.7409 31.64 86.4109 32.92 84.7109 33.86C83.0109 34.78 81.1109 35.24 79.0109 35.24ZM79.0109 32.57C80.5509 32.57 81.9309 32.22 83.1509 31.52C84.3909 30.82 85.3609 29.86 86.0609 28.64C86.7809 27.4 87.1409 26.02 87.1409 24.5C87.1409 22.98 86.7809 21.61 86.0609 20.39C85.3609 19.15 84.3909 18.18 83.1509 17.48C81.9309 16.78 80.5509 16.43 79.0109 16.43C77.4709 16.43 76.0709 16.78 74.8109 17.48C73.5709 18.18 72.5909 19.15 71.8709 20.39C71.1709 21.61 70.8209 22.98 70.8209 24.5C70.8209 26.02 71.1709 27.4 71.8709 28.64C72.5909 29.86 73.5709 30.82 74.8109 31.52C76.0709 32.22 77.4709 32.57 79.0109 32.57ZM112.786 14V35H110.326L97.7262 19.34V35H94.7262V14H97.1862L109.786 29.66V14H112.786ZM132.452 29.75H121.292L118.982 35H115.892L125.402 14H128.372L137.912 35H134.762L132.452 29.75ZM131.402 27.35L126.872 17.06L122.342 27.35H131.402ZM144.16 16.61H136.96V14H154.33V16.61H147.13V35H144.16V16.61ZM175.657 14V35H172.657V25.64H160.597V35H157.597V14H160.597V23.03H172.657V14H175.657ZM195.323 29.75H184.163L181.853 35H178.763L188.273 14H191.243L200.783 35H197.633L195.323 29.75ZM194.273 27.35L189.743 17.06L185.213 27.35H194.273ZM221.976 14V35H219.516L206.916 19.34V35H203.916V14H206.376L218.976 29.66V14H221.976ZM242.438 35.24C240.858 35.24 239.328 35 237.848 34.52C236.388 34.02 235.238 33.38 234.398 32.6L235.508 30.26C236.308 30.98 237.328 31.57 238.568 32.03C239.828 32.47 241.118 32.69 242.438 32.69C244.178 32.69 245.478 32.4 246.338 31.82C247.198 31.22 247.628 30.43 247.628 29.45C247.628 28.73 247.388 28.15 246.908 27.71C246.448 27.25 245.868 26.9 245.168 26.66C244.488 26.42 243.518 26.15 242.258 25.85C240.678 25.47 239.398 25.09 238.418 24.71C237.458 24.33 236.628 23.75 235.928 22.97C235.248 22.17 234.908 21.1 234.908 19.76C234.908 18.64 235.198 17.63 235.778 16.73C236.378 15.83 237.278 15.11 238.478 14.57C239.678 14.03 241.168 13.76 242.948 13.76C244.188 13.76 245.408 13.92 246.608 14.24C247.808 14.56 248.838 15.02 249.698 15.62L248.708 18.02C247.828 17.46 246.888 17.04 245.888 16.76C244.888 16.46 243.908 16.31 242.948 16.31C241.248 16.31 239.968 16.62 239.108 17.24C238.268 17.86 237.848 18.66 237.848 19.64C237.848 20.36 238.088 20.95 238.568 21.41C239.048 21.85 239.638 22.2 240.338 22.46C241.058 22.7 242.028 22.96 243.248 23.24C244.828 23.62 246.098 24 247.058 24.38C248.018 24.76 248.838 25.34 249.518 26.12C250.218 26.9 250.568 27.95 250.568 29.27C250.568 30.37 250.268 31.38 249.668 32.3C249.068 33.2 248.158 33.92 246.938 34.46C245.718 34.98 244.218 35.24 242.438 35.24ZM264.341 35.24C262.241 35.24 260.341 34.78 258.641 33.86C256.961 32.92 255.641 31.64 254.681 30.02C253.721 28.38 253.241 26.54 253.241 24.5C253.241 22.46 253.721 20.63 254.681 19.01C255.641 17.37 256.971 16.09 258.671 15.17C260.371 14.23 262.271 13.76 264.371 13.76C266.011 13.76 267.511 14.04 268.871 14.6C270.231 15.14 271.391 15.95 272.351 17.03L270.401 18.92C268.821 17.26 266.851 16.43 264.491 16.43C262.931 16.43 261.521 16.78 260.261 17.48C259.001 18.18 258.011 19.15 257.291 20.39C256.591 21.61 256.241 22.98 256.241 24.5C256.241 26.02 256.591 27.4 257.291 28.64C258.011 29.86 259.001 30.82 260.261 31.52C261.521 32.22 262.931 32.57 264.491 32.57C266.831 32.57 268.801 31.73 270.401 30.05L272.351 31.94C271.391 33.02 270.221 33.84 268.841 34.4C267.481 34.96 265.981 35.24 264.341 35.24ZM285.671 35.24C283.551 35.24 281.641 34.78 279.941 33.86C278.241 32.92 276.901 31.63 275.921 29.99C274.961 28.35 274.481 26.52 274.481 24.5C274.481 22.48 274.961 20.65 275.921 19.01C276.901 17.37 278.241 16.09 279.941 15.17C281.641 14.23 283.551 13.76 285.671 13.76C287.771 13.76 289.671 14.23 291.371 15.17C293.071 16.09 294.401 17.37 295.361 19.01C296.321 20.63 296.801 22.46 296.801 24.5C296.801 26.54 296.321 28.38 295.361 30.02C294.401 31.64 293.071 32.92 291.371 33.86C289.671 34.78 287.771 35.24 285.671 35.24ZM285.671 32.57C287.211 32.57 288.591 32.22 289.811 31.52C291.051 30.82 292.021 29.86 292.721 28.64C293.441 27.4 293.801 26.02 293.801 24.5C293.801 22.98 293.441 21.61 292.721 20.39C292.021 19.15 291.051 18.18 289.811 17.48C288.591 16.78 287.211 16.43 285.671 16.43C284.131 16.43 282.731 16.78 281.471 17.48C280.231 18.18 279.251 19.15 278.531 20.39C277.831 21.61 277.481 22.98 277.481 24.5C277.481 26.02 277.831 27.4 278.531 28.64C279.251 29.86 280.231 30.82 281.471 31.52C282.731 32.22 284.131 32.57 285.671 32.57ZM305.263 16.61H298.063V14H315.433V16.61H308.233V35H305.263V16.61ZM323.164 16.61H315.964V14H333.334V16.61H326.134V35H323.164V16.61Z" fill="#373636"/>
<defs>
<clipPath id="clip0_61_1326">
<rect width="43" height="50" fill="white"/>
</clipPath>
</defs>
</svg>
