<?xml version="1.0" encoding="UTF-8" standalone="no"?>
<svg
   version="1.1"
   width="50"
   height="50.080143"
   id="svg2"
   sodipodi:docname="google.svg"
   inkscape:version="1.4.2 (f4327f4, 2025-05-13)"
   xmlns:inkscape="http://www.inkscape.org/namespaces/inkscape"
   xmlns:sodipodi="http://sodipodi.sourceforge.net/DTD/sodipodi-0.dtd"
   xmlns="http://www.w3.org/2000/svg"
   xmlns:svg="http://www.w3.org/2000/svg">
  <sodipodi:namedview
     id="namedview1"
     pagecolor="#505050"
     bordercolor="#eeeeee"
     borderopacity="1"
     inkscape:showpageshadow="0"
     inkscape:pageopacity="0"
     inkscape:pagecheckerboard="0"
     inkscape:deskcolor="#505050"
     inkscape:zoom="9.6318868"
     inkscape:cx="41.165351"
     inkscape:cy="28.499089"
     inkscape:window-width="1920"
     inkscape:window-height="991"
     inkscape:window-x="1911"
     inkscape:window-y="-9"
     inkscape:window-maximized="1"
     inkscape:current-layer="svg2" />
  <defs
     id="defs2" />
  <path
     d="m 33.46351,1.499686 0.41073,0.1444261 c 1.890282,0.708076 3.692219,1.6925808 5.36144,2.8196615 l 0.312618,0.2065843 c 0.208605,0.1379402 0.416191,0.2774213 0.62341,0.4174342 -0.249794,0.8186811 -0.770883,1.409696 -1.296788,2.0670611 -0.197958,0.2507825 -0.395804,0.5016513 -0.593549,0.7526004 l -0.305155,0.3859742 c -0.466965,0.5941798 -0.925071,1.1950047 -1.382864,1.7962622 -0.674626,0.884435 -1.35177,1.766692 -2.03781,2.642328 -0.542383,-0.202195 -1.013139,-0.441231 -1.501544,-0.750772 -0.822447,-0.501791 -1.66868,-0.901086 -2.554576,-1.277288 l -0.297993,-0.135895 c -3.382968,-1.4349726 -7.630946,-1.1103104 -10.97456,0.236445 -1.882691,0.814445 -3.473174,1.917093 -4.951927,3.331551 l -0.325416,0.290072 c -2.374328,2.196018 -4.0269422,5.906906 -4.2206547,9.122347 -0.1691745,4.590935 1.0495067,8.627541 4.1688567,12.096107 2.641678,2.821504 6.27793,4.57165 10.156754,4.753876 3.979851,0.102899 8.008603,-0.930702 10.988575,-3.709985 0.698626,-0.556542 1.267568,-1.204051 1.872055,-1.862305 1.312503,-1.473496 2.018866,-3.293647 2.788582,-5.08965 H 25.039261 v -9.360277 h 24.960738 c 0,9.282811 -1.192337,16.168374 -7.644226,22.776673 -0.399703,0.387308 -0.814441,0.743304 -1.248037,1.092032 l -0.439983,0.363198 c -1.276035,1.032162 -2.63474,1.836764 -4.084151,2.60089 l -0.433888,0.233397 c -4.952176,2.580599 -10.8183,3.234749 -16.258605,2.106672 l -0.319323,-0.0633 C 15.359557,48.630715 11.52586,46.529907 8.38455,43.629463 8.0829541,43.353087 7.7753395,43.090855 7.459491,42.831158 6.8569294,42.315477 6.3524651,41.737686 5.8506935,41.124857 L 5.4844477,40.681829 C 4.4536722,39.405994 3.6502079,38.049169 2.8866059,36.600724 L 2.6239581,36.113819 C 0.05832964,31.202474 -0.60794889,25.310068 0.54653671,19.90823 l 0.0633004,-0.31658 C 1.3460089,15.961658 3.0362845,12.469568 5.3826796,9.6119258 L 5.5958911,9.3488965 C 9.2220436,4.8951011 14.229626,1.6981392 19.891109,0.56365834 l 0.325034,-0.070004 C 24.60728,-0.4341069 29.257126,-0.02945802 33.46351,1.499686 Z"
     fill="#010101"
     id="path2"
     style="fill:#373636;fill-opacity:1;stroke-width:1"
     inkscape:export-filename="google.svg"
     inkscape:export-xdpi="96"
     inkscape:export-ydpi="96" />
</svg>
