<?xml version="1.0" encoding="UTF-8" standalone="no"?>
<svg
   version="1.1"
   width="320.50333"
   height="321.01706"
   id="svg2"
   xmlns="http://www.w3.org/2000/svg"
   xmlns:svg="http://www.w3.org/2000/svg">
  <defs
     id="defs2" />
  <path
     d="m 214.50334,9.6130877 2.63281,0.9257813 c 12.11683,4.538814 23.66737,10.849556 34.36719,18.074219 l 2.0039,1.324219 c 1.33717,0.884206 2.66781,1.778289 3.9961,2.675781 -1.6012,5.247801 -4.94141,9.036246 -8.3125,13.25 -1.26892,1.607533 -2.53713,3.215619 -3.80469,4.824219 l -1.95606,2.474121 c -2.99328,3.808732 -5.92977,7.66006 -8.86425,11.51416 -4.3244,5.669287 -8.66494,11.324615 -13.0625,16.9375 -3.47671,-1.296086 -6.49429,-2.828321 -9.625,-4.8125 -5.27194,-3.216511 -10.69635,-5.776018 -16.375,-8.1875 l -1.91016,-0.871094 c -21.68505,-9.198273 -48.91487,-7.117166 -70.34766,1.515625 -12.06818,5.220651 -22.26328,12.288698 -31.742183,21.355469 l -2.08594,1.859375 c -15.2196,14.076627 -25.81297,37.863667 -27.05468,58.474857 -1.08442,29.4282 6.72741,55.30312 26.72265,77.53686 16.933333,18.08603 40.241953,29.30458 65.105473,30.47266 25.51111,0.65959 51.33568,-5.96586 70.4375,-23.78125 4.47824,-3.56747 8.1252,-7.71805 12,-11.9375 8.41323,-9.44521 12.94107,-21.1125 17.875,-32.625 h -94 v -60 h 160 c 0,59.50344 -7.64296,103.64036 -49,146 -2.56212,2.48267 -5.22062,4.76463 -8,7 l -2.82032,2.32812 c -8.17947,6.61623 -16.88886,11.77378 -26.17968,16.67188 l -2.78125,1.49609 c -31.74378,16.54181 -69.34603,20.73496 -104.21875,13.50391 l -2.04688,-0.40576 c -27.000673,-5.48119 -51.574923,-18.94751 -71.710933,-37.53955 -1.93325,-1.77159 -3.90508,-3.45251 -5.92969,-5.11719 -3.86246,-3.30555 -7.09611,-7.00923 -10.3125,-10.9375 l -2.34766,-2.83984 c -6.60734,-8.17819 -11.7576,-16.87553 -16.65234,-26.16016 L 16.819747,231.492 C 0.37389691,200.00995 -3.8969931,162.23923 3.5033369,127.61309 l 0.40576,-2.0293 C 8.6280069,102.3153 19.462787,79.930767 34.503337,61.613088 l 1.3667,-1.686035 C 59.113917,31.377926 91.212857,10.885186 127.50334,3.6130877 l 2.08349,-0.4487305 c 28.14748,-5.9470115 57.95331,-3.35318505 84.91651,6.4487305 z"
     fill="#010101"
     id="path2"
     style="fill:#373636;fill-opacity:1" />
</svg>
