<?xml version="1.0" encoding="UTF-8" standalone="no"?>
<svg
   viewBox="0 0 50 19.984373"
   width="50"
   height="19.984373"
   version="1.1"
   id="svg1"
   xmlns="http://www.w3.org/2000/svg"
   xmlns:svg="http://www.w3.org/2000/svg">
  <defs
     id="defs1" />
  <path
     d="M 0,-5.1861722e-7 H 9.734375 V 1.3710924 H 0 Z m 21.589844,0 H 11.128906 V 1.3710924 h 13.945313 l -0.21875,-0.210937 -0.28125,-0.20312491 -0.292969,-0.203125 -0.320312,-0.167969 -0.316407,-0.152344 -0.320312,-0.128906 -0.34375,-0.113281 -0.347656,-0.074219 -0.339844,-0.0625 L 21.953125,-5.1861722e-7 Z m 6.226562,0 V 1.3710924 h 8.398438 L 35.730469,-5.1861722e-7 Z m 14.34375,0 L 41.675781,1.3710924 H 50 V -5.1861722e-7 Z M 0,2.6679674 v 1.347657 h 9.734375 v -1.347657 z m 2.78125,2.640625 v 1.378907 h 4.160156 v -1.378907 z m 0,2.652344 v 1.382813 H 6.941406 V 7.9609364 Z M 26.058594,2.6679674 H 11.128906 v 1.347657 h 15.449219 l -0.164062,-0.542969 -0.128907,-0.355469 -0.152343,-0.320312 z m -12.148438,2.640625 v 1.378907 h 4.15625 v -1.378907 z m 12.796875,0 h -4.453125 v 1.378907 h 4.226563 l 0.03906,-0.117188 0.08203,-0.339844 0.05469,-0.347656 0.03906,-0.355469 z m -0.816406,2.652344 H 13.910156 v 1.382813 h 10.664063 l 0.234375,-0.15625 0.265625,-0.230469 0.242187,-0.253906 0.226563,-0.265625 0.21875,-0.28125 z m 1.925781,-5.292969 v 1.347657 h 9.328125 l -0.484375,-1.347657 z m 22.183594,0 h -8.773437 l -0.46875,1.347657 H 50 Z m -19.398437,2.640625 v 1.378907 H 38.0625 l -0.484375,-1.378907 z m 16.6875,0 h -6.992188 l -0.476562,1.378907 h 7.46875 z m -12.078125,4.03125 h 7.484375 l 0.421875,-1.226562 v 1.226562 h 4.171875 v -1.378906 h -7.910157 l -0.433593,1.226563 -0.433594,-1.226563 h -7.910156 v 1.378906 h 4.171875 V 8.1054674 Z M 0,18.59375 v 1.390625 H 9.734375 V 18.59375 Z M 0,15.921875 V 17.3125 h 9.734375 v -1.390625 z m 2.78125,-5.292969 v 1.367187 h 4.160156 v -1.367187 z m 0,2.652344 v 1.378906 H 6.941406 V 13.28125 Z M 24.574219,10.628906 H 13.910156 v 1.367187 h 11.980469 l -0.128906,-0.164062 -0.21875,-0.28125 -0.226563,-0.269531 -0.242187,-0.257813 -0.269531,-0.226562 z M 13.910156,13.28125 v 1.378906 h 4.15625 V 13.28125 Z m 12.570313,0 h -4.226563 v 1.378906 h 4.453125 l -0.0078,-0.207031 -0.04297,-0.355469 -0.05078,-0.339844 -0.08594,-0.34375 z m 0.09766,2.640625 H 11.128906 V 17.3125 h 14.929688 l 0.07422,-0.121094 0.152343,-0.324219 0.128907,-0.332031 0.105468,-0.332031 z M 25.074223,18.59375 H 11.128906 v 1.390625 h 10.410157 l 0.359375,-0.01563 0.355468,-0.03906 0.332032,-0.0625 0.34375,-0.07422 0.347656,-0.121093 0.316406,-0.121094 0.320313,-0.15625 0.320312,-0.167969 0.289063,-0.191406 0.285156,-0.21875 z m 5.527344,-7.964844 v 1.367187 h 4.171875 v -1.367187 z m 11.164062,1.367187 0.480469,-1.367187 h -6.605469 l 0.46875,1.367187 z m 1.351563,-1.367187 v 1.367187 h 4.171875 V 10.628906 Z M 30.601567,13.28125 v 1.378906 h 4.171875 V 13.28125 Z m 10.742187,0 h -4.796875 l 0.472656,1.378906 h 3.851563 z m 1.773438,0 v 1.378906 h 4.171875 V 13.28125 Z M 27.81641,15.921875 V 17.3125 h 6.957032 v -1.390625 z m 12.617188,0 h -2.984375 l 0.476562,1.390625 h 2.039063 z m 2.683594,0 V 17.3125 H 50 V 15.921875 Z M 27.81641,18.59375 v 1.390625 h 6.957032 V 18.59375 Z m 15.300782,0 v 1.390625 H 50 V 18.59375 Z m -4.074219,1.390625 0.476562,-1.386719 h -1.148437 l 0.46875,1.386719 z"
     id="path1"
     style="fill:#373636;fill-opacity:1" />
</svg>
