<?xml version="1.0" encoding="UTF-8" standalone="no"?>
<!-- Uploaded to: SVG Repo, www.svgrepo.com, Generator: SVG Repo Mixer Tools -->

<svg
   fill="#000000"
   width="1000"
   height="1000"
   viewBox="0 0 2400 2400"
   version="1.1"
   id="svg1"
   sodipodi:docname="linkedin-line.svg"
   inkscape:export-filename="linkedin-line.png"
   inkscape:export-xdpi="96"
   inkscape:export-ydpi="96"
   inkscape:version="1.4.2 (f4327f4, 2025-05-13)"
   xmlns:inkscape="http://www.inkscape.org/namespaces/inkscape"
   xmlns:sodipodi="http://sodipodi.sourceforge.net/DTD/sodipodi-0.dtd"
   xmlns="http://www.w3.org/2000/svg"
   xmlns:svg="http://www.w3.org/2000/svg">
  <defs
     id="defs1" />
  <sodipodi:namedview
     id="namedview1"
     pagecolor="#505050"
     bordercolor="#eeeeee"
     borderopacity="1"
     inkscape:showpageshadow="0"
     inkscape:pageopacity="0"
     inkscape:pagecheckerboard="0"
     inkscape:deskcolor="#505050"
     inkscape:zoom="0.34162096"
     inkscape:cx="408.34731"
     inkscape:cy="519.5817"
     inkscape:window-width="1920"
     inkscape:window-height="991"
     inkscape:window-x="1911"
     inkscape:window-y="-9"
     inkscape:window-maximized="1"
     inkscape:current-layer="svg1" />
  <path
     d="m 1406.8612,840.18222 v 74.955 c 72.312,-44.925 155.796,-71.11 282.643,-71.11 412.852,0 465.705,308.58798 465.705,577.41698 v 733.213 l -477.357,4.204 v -701.261 c 0,-117.718 -42.162,-140.06 -120.12,-140.06 -74.114,0 -120.12,23.423 -120.12,140.06 v 701.261 l -483.60398,-4.204 V 840.18122 h 452.85298 z m -687.51998,-0.792 V 2158.3082 h -480.48 V 839.39122 h 480.48 z m -120.12,120.12004 h -240.24 V 2038.1882 h 240.24 V 959.51126 Z m 687.51998,0.792 h -212.613 V 2035.6182 l 243.364,2.162 v -580.18 c 0,-226.427 150.51,-260.18 240.24,-260.18 109.55,0 240.24,45.165 240.24,260.18 v 580.18 l 237.117,-2.162 v -614.174 c 0,-333.334 -93.573,-457.29794 -345.585,-457.29794 -151.472,0 -217.057,44.92494 -281.322,98.97994 l -16.696,14.173 h -104.745 z M 479.10122,238.86122 c 132.493,0 240.24,107.748 240.24,240.24 0,132.493 -107.747,240.24 -240.24,240.24 -132.492,0 -240.24,-107.747 -240.24,-240.24 0,-132.492 107.748,-240.24 240.24,-240.24 z m 0,120.12 c -66.186,0 -120.12,53.934 -120.12,120.12 0,66.186 53.934,120.12 120.12,120.12 66.186,0 120.12,-53.934 120.12,-120.12 0,-66.186 -53.934,-120.12 -120.12,-120.12 z"
     fill-rule="evenodd"
     id="path1"
     style="fill:#373636;fill-opacity:1" />
</svg>
