<?xml version="1.0" encoding="UTF-8" standalone="no"?>
<svg
   viewBox="0 0 48.099998 32.071796"
   width="48.099998"
   height="32.071796"
   version="1.1"
   id="svg1"
   xmlns="http://www.w3.org/2000/svg"
   xmlns:svg="http://www.w3.org/2000/svg">
  <defs
     id="defs1" />
  <path
     d="m 46.35,11.09 c -0.58,-1.6000002 -1.3,-3.1600002 -2.24,-4.6600002 -0.93,-1.49 -2.11,-2.93 -3.63,-4.13 -1.51,-1.19 -3.49,-2.09000001 -5.59,-2.26000001 L 34.11,-2.0534766e-7 C 33.84,0.00999979 33.54,0.00999979 33.26,0.03999979 c -0.57,0.06 -1.11,0.19 -1.62,0.34 -1.03,0.32 -1.93,0.80000001 -2.72,1.32000001 -1.42,0.94 -2.55,2.03 -3.57,3.15 0.01,0.02 0.03,0.03 0.04,0.05 l 0.22,0.28 c 0.51,0.67 1.62,2.21 2.61,3.87 1.23,-1.2 2.83,-2.65 3.49,-3.07 0.5,-0.31 0.99,-0.55 1.43,-0.68 0.23,-0.06 0.44,-0.11 0.64,-0.12 0.1,-0.02 0.19,-0.01 0.3,-0.02 l 0.38,0.02 c 0.98,0.09 1.94,0.49 2.85,1.19 1.81,1.44 3.24,3.8900002 4.17,6.4800002 0.95,2.6 1.49,5.44 1.52,8.18 0,1.31 -0.17,2.57 -0.57,3.61 -0.39,1.05 -1.38,1.45 -2.5,1.45 -1.63,0 -2.81,-0.7 -3.76,-1.68 C 35.13,23.32 34.15,22.1 33.21,20.8 32.43,19.71 31.67,18.58 30.95,17.43 29.68,15.37 27.98,12.76 26.8,10.58 L 24.05,6.4299998 c -0.31,-0.39 -0.61,-0.78 -0.94,-1.17 -1.11,-1.26 -2.34,-2.5 -3.93,-3.56 -0.79,-0.52 -1.69,-1.00000001 -2.72,-1.32000001 -0.51,-0.15 -1.05,-0.28 -1.62,-0.34 -0.18,-0.02 -0.36,-0.03 -0.54,-0.03 -0.11,0 -0.21,-0.009999995348 -0.31,-0.009999995348 L 13.21,0.03999979 c -2.1,0.17 -4.08,1.07000001 -5.59,2.26000001 -1.52,1.2 -2.7,2.64 -3.63,4.13 -0.94,1.5 -1.66,3.06 -2.24,4.6600002 -1.13,3.2 -1.74,6.51 -1.75,9.93 0.01,1.78 0.24,3.63 0.96,5.47 0.7,1.8 2.02,3.71 4.12,4.77 1.03,0.53 2.2,0.81 3.32,0.81 1.23,0.03 2.4,-0.32 3.33,-0.77 1.87,-0.93 3.16,-2.16 4.33,-3.4 2.31,-2.51 4.02,-5.23 5.6,-8 0.44,-0.76 0.86,-1.54 1.27,-2.33 -0.21,-0.41 -0.42,-0.84 -0.64,-1.29 -0.62,-1.03 -1.39,-2.25 -1.95,-3.1 -0.83,1.5 -1.69,2.96 -2.58,4.41 -1.59,2.52 -3.3,4.97 -5.21,6.98 -0.95,0.98 -2,1.84 -2.92,2.25 -0.47,0.2 -0.83,0.27 -1.14,0.25 -0.43,0 -0.79,-0.1 -1.13,-0.28 C 6.69,26.44 6.06,25.69 5.67,24.64 5.27,23.6 5.1,22.34 5.1,21.03 5.13,18.29 5.67,15.45 6.62,12.85 7.55,10.26 8.98,7.8099998 10.79,6.3699998 c 0.91,-0.7 1.87,-1.1 2.85,-1.19 l 0.38,-0.02 c 0.11,0.01 0.2,0 0.3,0.02 0.2,0.01 0.41,0.06 0.64,0.12 0.26,0.08 0.54,0.19 0.83,0.34 0.2,0.1 0.4,0.21 0.6,0.34 1,0.64 1.99,1.58 2.92,2.62 0.72,0.81 1.41,1.7100002 2.1,2.6300002 l 2.64,4.09 c 0.75,1.55 1.53,3.09 2.39,4.58 1.58,2.77 3.29,5.49 5.6,8 0.68,0.73 1.41,1.45 2.27,2.1 0.61,0.48 1.28,0.91 2.06,1.3 0.93,0.45 2.1,0.8 3.33,0.77 1.12,0 2.29,-0.28 3.32,-0.81 2.1,-1.06 3.42,-2.97 4.12,-4.77 0.72,-1.84 0.95,-3.69 0.96,-5.47 -0.01,-3.42 -0.62,-6.73 -1.75,-9.93 z"
     id="path1"
     style="fill:#373636;fill-opacity:1" />
</svg>
